<mxfile host="app.diagrams.net" modified="2020-05-12T15:20:13.439Z" agent="5.0 (Windows NT 10.0; Win64; x64) AppleWebKit/537.36 (KHTML, like Gecko) Chrome/81.0.4044.138 Safari/537.36" etag="xRkIuOjMjsLiFQSGOzcZ" version="13.1.0" type="github">
  <diagram id="GpYYDnvAREOODney7E6a" name="Page-1">
    <mxGraphModel dx="1422" dy="762" grid="1" gridSize="10" guides="1" tooltips="1" connect="1" arrows="1" fold="1" page="1" pageScale="1" pageWidth="827" pageHeight="1169" math="0" shadow="0">
      <root>
        <mxCell id="0" />
        <mxCell id="1" parent="0" />
        <mxCell id="EydMYWLvM1oyMiFLcM9R-8" style="edgeStyle=orthogonalEdgeStyle;rounded=0;orthogonalLoop=1;jettySize=auto;html=1;exitX=0.5;exitY=1;exitDx=0;exitDy=0;entryX=0.5;entryY=0;entryDx=0;entryDy=0;" edge="1" parent="1" source="EydMYWLvM1oyMiFLcM9R-1" target="EydMYWLvM1oyMiFLcM9R-3">
          <mxGeometry relative="1" as="geometry" />
        </mxCell>
        <mxCell id="EydMYWLvM1oyMiFLcM9R-9" value="Account" style="edgeLabel;html=1;align=center;verticalAlign=middle;resizable=0;points=[];" vertex="1" connectable="0" parent="EydMYWLvM1oyMiFLcM9R-8">
          <mxGeometry x="-0.26" y="-1" relative="1" as="geometry">
            <mxPoint as="offset" />
          </mxGeometry>
        </mxCell>
        <mxCell id="EydMYWLvM1oyMiFLcM9R-1" value="Doctor" style="rounded=0;whiteSpace=wrap;html=1;fontStyle=1;fontSize=14;" vertex="1" parent="1">
          <mxGeometry x="80" y="40" width="150" height="60" as="geometry" />
        </mxCell>
        <mxCell id="EydMYWLvM1oyMiFLcM9R-7" value="Send" style="edgeStyle=orthogonalEdgeStyle;rounded=0;orthogonalLoop=1;jettySize=auto;html=1;exitX=0.25;exitY=1;exitDx=0;exitDy=0;entryX=1;entryY=0;entryDx=0;entryDy=0;" edge="1" parent="1" source="EydMYWLvM1oyMiFLcM9R-2" target="EydMYWLvM1oyMiFLcM9R-5">
          <mxGeometry relative="1" as="geometry" />
        </mxCell>
        <mxCell id="EydMYWLvM1oyMiFLcM9R-2" value="Login" style="whiteSpace=wrap;html=1;aspect=fixed;fontSize=14;" vertex="1" parent="1">
          <mxGeometry x="85" y="200" width="140" height="140" as="geometry" />
        </mxCell>
        <mxCell id="EydMYWLvM1oyMiFLcM9R-14" style="edgeStyle=orthogonalEdgeStyle;rounded=0;orthogonalLoop=1;jettySize=auto;html=1;exitX=0.75;exitY=0;exitDx=0;exitDy=0;entryX=0.014;entryY=0.364;entryDx=0;entryDy=0;entryPerimeter=0;" edge="1" parent="1" source="EydMYWLvM1oyMiFLcM9R-3" target="EydMYWLvM1oyMiFLcM9R-10">
          <mxGeometry relative="1" as="geometry" />
        </mxCell>
        <mxCell id="EydMYWLvM1oyMiFLcM9R-16" value="Button" style="edgeLabel;html=1;align=center;verticalAlign=middle;resizable=0;points=[];" vertex="1" connectable="0" parent="EydMYWLvM1oyMiFLcM9R-14">
          <mxGeometry x="-0.0575" y="-9" relative="1" as="geometry">
            <mxPoint as="offset" />
          </mxGeometry>
        </mxCell>
        <mxCell id="EydMYWLvM1oyMiFLcM9R-3" value="1.0" style="rounded=0;whiteSpace=wrap;html=1;fontSize=14;" vertex="1" parent="1">
          <mxGeometry x="85" y="200" width="140" height="30" as="geometry" />
        </mxCell>
        <mxCell id="EydMYWLvM1oyMiFLcM9R-6" value="Reply" style="edgeStyle=orthogonalEdgeStyle;rounded=0;orthogonalLoop=1;jettySize=auto;html=1;exitX=0.75;exitY=0;exitDx=0;exitDy=0;entryX=0.8;entryY=1.014;entryDx=0;entryDy=0;entryPerimeter=0;" edge="1" parent="1" source="EydMYWLvM1oyMiFLcM9R-4" target="EydMYWLvM1oyMiFLcM9R-2">
          <mxGeometry relative="1" as="geometry" />
        </mxCell>
        <mxCell id="EydMYWLvM1oyMiFLcM9R-4" value="Doctor" style="rounded=0;whiteSpace=wrap;html=1;" vertex="1" parent="1">
          <mxGeometry x="70" y="400" width="170" height="50" as="geometry" />
        </mxCell>
        <mxCell id="EydMYWLvM1oyMiFLcM9R-5" value="DS1" style="whiteSpace=wrap;html=1;aspect=fixed;" vertex="1" parent="1">
          <mxGeometry x="70" y="400" width="50" height="50" as="geometry" />
        </mxCell>
        <mxCell id="EydMYWLvM1oyMiFLcM9R-10" value="Make Report" style="whiteSpace=wrap;html=1;aspect=fixed;fontSize=14;" vertex="1" parent="1">
          <mxGeometry x="250" y="90" width="140" height="140" as="geometry" />
        </mxCell>
        <mxCell id="EydMYWLvM1oyMiFLcM9R-15" value="Report submisstion" style="edgeStyle=orthogonalEdgeStyle;rounded=0;orthogonalLoop=1;jettySize=auto;html=1;exitX=0.5;exitY=0;exitDx=0;exitDy=0;entryX=1;entryY=0.25;entryDx=0;entryDy=0;" edge="1" parent="1" source="EydMYWLvM1oyMiFLcM9R-11" target="EydMYWLvM1oyMiFLcM9R-1">
          <mxGeometry relative="1" as="geometry" />
        </mxCell>
        <mxCell id="EydMYWLvM1oyMiFLcM9R-11" value="2.0" style="rounded=0;whiteSpace=wrap;html=1;fontSize=14;" vertex="1" parent="1">
          <mxGeometry x="250" y="90" width="140" height="30" as="geometry" />
        </mxCell>
      </root>
    </mxGraphModel>
  </diagram>
</mxfile>
